0
SECTION
2
HEADER
9
$INSUNITS
70
1
9
$ACADVER
1
AC1014
9
$HANDSEED
5
FFFF
0
ENDSEC
0
SECTION
2
TABLES
0
TABLE
2
VPORT
5
8
100
AcDbSymbolTable
0
ENDTAB
0
TABLE
2
LTYPE
5
5
100
AcDbSymbolTable
0
LTYPE
5
14
100
AcDbSymbolTableRecord
100
AcDbLinetypeTableRecord
2
BYBLOCK
70
0
0
LTYPE
5
15
100
AcDbSymbolTableRecord
100
AcDbLinetypeTableRecord
2
BYLAYER
70
0
0
LTYPE
5
16
100
AcDbSymbolTableRecord
100
AcDbLinetypeTableRecord
2
DASHED
70
0
3
Dashed __ __ __ __ __ __ __ __ __ __ __ __ __ _
72
65
73
2
40
0.75
49
0.5
74
0
49
-0.25
74
0
0
ENDTAB
0
TABLE
2
LAYER
5
2
100
AcDbSymbolTable
70
3
0
LAYER
5
50
100
AcDbSymbolTableRecord
100
AcDbLayerTableRecord
2
1
70
0
62
7
6
DASHED
0
LAYER
5
51
100
AcDbSymbolTableRecord
100
AcDbLayerTableRecord
2
0
70
0
62
7
6
CONTINUOUS
0
ENDTAB
0
TABLE
2
STYLE
5
3
100
AcDbSymbolTable
70
1
0
STYLE
5
11
100
AcDbSymbolTableRecord
100
AcDbTextStyleTableRecord
2
STANDARD
70
0
0
ENDTAB
0
TABLE
2
VIEW
5
6
100
AcDbSymbolTable
70
0
0
ENDTAB
0
TABLE
2
UCS
5
7
100
AcDbSymbolTable
70
0
0
ENDTAB
0
TABLE
2
APPID
5
9
100
AcDbSymbolTable
70
2
0
APPID
5
12
100
AcDbSymbolTableRecord
100
AcDbRegAppTableRecord
2
ACAD
70
0
0
ENDTAB
0
TABLE
2
DIMSTYLE
5
A
100
AcDbSymbolTable
70
1
0
ENDTAB
0
TABLE
2
BLOCK_RECORD
5
1
100
AcDbSymbolTable
70
1
0
BLOCK_RECORD
5
1F
100
AcDbSymbolTableRecord
100
AcDbBlockTableRecord
2
*MODEL_SPACE
0
BLOCK_RECORD
5
1B
100
AcDbSymbolTableRecord
100
AcDbBlockTableRecord
2
*PAPER_SPACE
0
ENDTAB
0
ENDSEC
0
SECTION
2
BLOCKS
0
BLOCK
5
20
100
AcDbEntity
100
AcDbBlockBegin
2
*MODEL_SPACE
0
ENDBLK
5
21
100
AcDbEntity
100
AcDbBlockEnd
0
BLOCK
5
1C
100
AcDbEntity
100
AcDbBlockBegin
2
*PAPER_SPACE
0
ENDBLK
5
1D
100
AcDbEntity
100
AcDbBlockEnd
0
ENDSEC
0
SECTION
2
ENTITIES
0
CIRCLE
5
100
100
AcDbEntity
8
0
100
AcDbCircle
10
-1.1490485194281399
20
-1.1490485194281397
30
0
40
0.12999999999999998
210
0
220
-0
230
1
0
CIRCLE
5
101
100
AcDbEntity
8
0
100
AcDbCircle
10
-1.7483827159451283e-16
20
-1.625000000001406
30
0
40
0.13000000000000003
210
0
220
-0
230
1
0
CIRCLE
5
102
100
AcDbEntity
8
0
100
AcDbCircle
10
1.1490485194281399
20
1.1490485194281397
30
0
40
0.12999999999999998
210
0
220
-0
230
1
0
CIRCLE
5
103
100
AcDbEntity
8
0
100
AcDbCircle
10
1.7483827159451283e-16
20
1.625000000001406
30
0
40
0.12999999999999992
210
0
220
-0
230
1
0
CIRCLE
5
104
100
AcDbEntity
8
0
100
AcDbCircle
10
1.1490485194281397
20
-1.1490485194281399
30
0
40
0.12999999999999998
210
0
220
-0
230
1
0
CIRCLE
5
105
100
AcDbEntity
8
0
100
AcDbCircle
10
1.625000000001406
20
-1.7483827159451283e-16
30
0
40
0.12999999999999995
210
0
220
-0
230
1
0
CIRCLE
5
106
100
AcDbEntity
8
0
100
AcDbCircle
10
-1.625000000001406
20
1.7483827159451283e-16
30
0
40
0.12999999999999995
210
0
220
-0
230
1
0
CIRCLE
5
107
100
AcDbEntity
8
0
100
AcDbCircle
10
-1.1490485194281397
20
1.1490485194281399
30
0
40
0.12999999999999998
210
0
220
-0
230
1
0
CIRCLE
5
108
100
AcDbEntity
8
0
100
AcDbCircle
10
-2.4375
20
0.50000000000000011
30
0
40
0.074750000000000066
210
0
220
-0
230
1
0
CIRCLE
5
109
100
AcDbEntity
8
0
100
AcDbCircle
10
-3.1874999999999996
20
0.50000000000000011
30
0
40
0.074749999999999706
210
0
220
-0
230
1
0
LWPOLYLINE
5
110
100
AcDbEntity
8
0
100
AcDbPolyline
90
36
70
1
43
0.0
10
-1.8645120462557778
20
0.72359852775354272
42
0.0048224971935746782
10
-1.87812240016459
20
0.68750000000000033
10
-3.3749999999999996
20
0.68750000000000011
10
-3.3749999999999996
20
0.31250000000000022
10
-1.9754350786598893
20
0.31250000000000011
42
0.13254054746079394
10
-1.8645120462557785
20
-0.72359852775354228
10
-1.8187858428536041
20
-0.70465811414926649
10
-1.7843443339416984
20
-0.7878072720750765
10
-1.8300705373434687
20
-0.80674768567836053
42
0.18724188696861202
10
-0.80674768568171984
20
-1.8300705373419883
10
-0.78780727207507684
20
-1.7843443339416984
10
-0.70465811414926682
20
-1.8187858428536041
10
-0.72359852775354283
20
-1.8645120462557776
42
0.18724188696852875
10
0.72359852775354183
20
-1.8645120462557778
10
0.70465811414926649
20
-1.8187858428536041
10
0.7878072720750765
20
-1.7843443339416984
10
0.80674768567836053
20
-1.8300705373434687
42
0.18724188696861202
10
1.8300705373419883
20
-0.80674768568171984
10
1.7843443339416984
20
-0.78780727207507684
10
1.8187858428536041
20
-0.70465811414926682
10
1.8645120462560436
20
-0.72359852775285793
42
0.18724188696833871
10
1.8645120462560436
20
0.7235985277528576
10
1.8187858428536041
20
0.7046581141492666
10
1.7843443339416984
20
0.78780727207507673
10
1.8300705373434678
20
0.80674768567836019
42
0.18724188696861199
10
0.8067476856817194
20
1.8300705373419877
10
0.78780727207507684
20
1.7843443339416989
10
0.70465811414926682
20
1.8187858428536043
10
0.72359852775354305
20
1.8645120462557778
42
0.18724188696852875
10
-0.72359852775354139
20
1.8645120462557778
10
-0.70465811414926649
20
1.8187858428536043
10
-0.7878072720750765
20
1.7843443339416989
10
-0.80674768568033361
20
1.8300705373425987
42
0.18724188696833302
10
-1.8300705373419877
20
0.80674768568171973
10
-1.1368800761412909
20
0.5196187953422915
42
-55.537549719799941
10
-1.1713215850541123
20
0.43646963741630757
0
ENDSEC
0
SECTION
2
OBJECTS
0
DICTIONARY
5
C
100
AcDbDictionary
3
ACAD_GROUP
350
D
3
ACAD_MLINESTYLE
350
17
0
DICTIONARY
5
D
100
AcDbDictionary
0
DICTIONARY
5
1A
330
C
100
AcDbDictionary
0
DICTIONARY
5
17
100
AcDbDictionary
0
ENDSEC
0
EOF
