0
SECTION
2
HEADER
9
$INSUNITS
70
1
9
$ACADVER
1
AC1014
9
$HANDSEED
5
FFFF
0
ENDSEC
0
SECTION
2
TABLES
0
TABLE
2
VPORT
5
8
100
AcDbSymbolTable
0
ENDTAB
0
TABLE
2
LTYPE
5
5
100
AcDbSymbolTable
0
LTYPE
5
14
100
AcDbSymbolTableRecord
100
AcDbLinetypeTableRecord
2
BYBLOCK
70
0
0
LTYPE
5
15
100
AcDbSymbolTableRecord
100
AcDbLinetypeTableRecord
2
BYLAYER
70
0
0
LTYPE
5
16
100
AcDbSymbolTableRecord
100
AcDbLinetypeTableRecord
2
DASHED
70
0
3
Dashed __ __ __ __ __ __ __ __ __ __ __ __ __ _
72
65
73
2
40
0.75
49
0.5
74
0
49
-0.25
74
0
0
ENDTAB
0
TABLE
2
LAYER
5
2
100
AcDbSymbolTable
70
3
0
LAYER
5
50
100
AcDbSymbolTableRecord
100
AcDbLayerTableRecord
2
1
70
0
62
7
6
DASHED
0
LAYER
5
51
100
AcDbSymbolTableRecord
100
AcDbLayerTableRecord
2
0
70
0
62
7
6
CONTINUOUS
0
ENDTAB
0
TABLE
2
STYLE
5
3
100
AcDbSymbolTable
70
1
0
STYLE
5
11
100
AcDbSymbolTableRecord
100
AcDbTextStyleTableRecord
2
STANDARD
70
0
0
ENDTAB
0
TABLE
2
VIEW
5
6
100
AcDbSymbolTable
70
0
0
ENDTAB
0
TABLE
2
UCS
5
7
100
AcDbSymbolTable
70
0
0
ENDTAB
0
TABLE
2
APPID
5
9
100
AcDbSymbolTable
70
2
0
APPID
5
12
100
AcDbSymbolTableRecord
100
AcDbRegAppTableRecord
2
ACAD
70
0
0
ENDTAB
0
TABLE
2
DIMSTYLE
5
A
100
AcDbSymbolTable
70
1
0
ENDTAB
0
TABLE
2
BLOCK_RECORD
5
1
100
AcDbSymbolTable
70
1
0
BLOCK_RECORD
5
1F
100
AcDbSymbolTableRecord
100
AcDbBlockTableRecord
2
*MODEL_SPACE
0
BLOCK_RECORD
5
1B
100
AcDbSymbolTableRecord
100
AcDbBlockTableRecord
2
*PAPER_SPACE
0
ENDTAB
0
ENDSEC
0
SECTION
2
BLOCKS
0
BLOCK
5
20
100
AcDbEntity
100
AcDbBlockBegin
2
*MODEL_SPACE
0
ENDBLK
5
21
100
AcDbEntity
100
AcDbBlockEnd
0
BLOCK
5
1C
100
AcDbEntity
100
AcDbBlockBegin
2
*PAPER_SPACE
0
ENDBLK
5
1D
100
AcDbEntity
100
AcDbBlockEnd
0
ENDSEC
0
SECTION
2
ENTITIES
0
CIRCLE
5
100
100
AcDbEntity
8
0
100
AcDbCircle
10
-1.1490485194281395
20
1.1490485194281401
30
0
40
0.13
210
0
220
-0
230
1
0
CIRCLE
5
101
100
AcDbEntity
8
0
100
AcDbCircle
10
-2.78125
20
0.49999999999999994
30
0
40
0.074750000000000066
210
0
220
-0
230
1
0
CIRCLE
5
102
100
AcDbEntity
8
0
100
AcDbCircle
10
-1.625
20
0
30
0
40
0.12999999999999984
210
0
220
-0
230
1
0
CIRCLE
5
103
100
AcDbEntity
8
0
100
AcDbCircle
10
-3.6082248300317588e-16
20
-1.625
30
0
40
0.12999999999999992
210
0
220
-0
230
1
0
CIRCLE
5
104
100
AcDbEntity
8
0
100
AcDbCircle
10
1.1490485194281397
20
-1.1490485194281401
30
0
40
0.12999999999999984
210
0
220
-0
230
1
0
CIRCLE
5
105
100
AcDbEntity
8
0
100
AcDbCircle
10
3.6082248300317588e-16
20
1.625
30
0
40
0.12999999999999992
210
0
220
-0
230
1
0
CIRCLE
5
106
100
AcDbEntity
8
0
100
AcDbCircle
10
-2.34375
20
0.49999999999999994
30
0
40
0.074750000000000066
210
0
220
-0
230
1
0
CIRCLE
5
107
100
AcDbEntity
8
0
100
AcDbCircle
10
1.1490485194281397
20
1.1490485194281397
30
0
40
0.12999999999999984
210
0
220
-0
230
1
0
CIRCLE
5
108
100
AcDbEntity
8
0
100
AcDbCircle
10
-1.1490485194281397
20
-1.1490485194281399
30
0
40
0.12999999999999984
210
0
220
-0
230
1
0
CIRCLE
5
109
100
AcDbEntity
8
0
100
AcDbCircle
10
1.625
20
-1.9900510486144489e-16
30
0
40
0.12999999999999984
210
0
220
-0
230
1
0
LWPOLYLINE
5
110
100
AcDbEntity
8
0
100
AcDbPolyline
90
35
70
1
43
0.0
10
-1.9754350786598887
20
0.31250000000000028
42
0.13254054746084734
10
-1.8645120462556257
20
-0.72359852775393285
10
-1.8183060722898097
20
-0.70445938667463481
42
0.011539998133348262
10
-1.7838645633769525
20
-0.78760854460065033
10
-1.830070537342767
20
-0.80674768567994959
42
0.18724188696863747
10
-0.80674768567994926
20
-1.8300705373427673
10
-0.78760854460065033
20
-1.7838645633769523
42
0.011539998133347057
10
-0.70445938667463515
20
-1.8183060722898103
10
-0.72359852775393363
20
-1.8645120462556251
42
0.18724188696863733
10
0.72359852775393274
20
-1.8645120462556257
10
0.70445938667463459
20
-1.8183060722898103
42
0.011539998133348864
10
0.78760854460064977
20
-1.7838645633769523
10
0.80674768567994892
20
-1.830070537342767
42
0.18724188696863747
10
1.8300705373427677
20
-0.80674768567994981
10
1.7838645633769519
20
-0.78760854460065088
42
0.011539998133348262
10
1.8183060722898101
20
-0.70445938667463559
10
1.8645120462556255
20
-0.72359852775393441
42
0.18724188696863725
10
1.8645120462556262
20
0.72359852775393185
10
1.8183060722898103
20
0.70445938667463393
42
0.011539998133349464
10
1.7838645633769512
20
0.78760854460065122
10
1.830070537342767
20
0.80674768567994948
42
0.18724188696863753
10
0.80674768567994926
20
1.830070537342767
10
0.78760854460065088
20
1.7838645633769519
42
0.011539998133348262
10
0.70445938667463559
20
1.8183060722898101
10
0.72359852775393363
20
1.8645120462556255
42
0.18724188696863731
10
-0.72359852775393274
20
1.8645120462556257
10
-0.7044593866746347
20
1.8183060722898101
42
0.011539998133348262
10
-0.78760854460065022
20
1.7838645633769525
10
-0.80674768567994948
20
1.830070537342767
42
0.18724188696863733
10
-1.8300705373427664
20
0.80674768567995081
10
-1.1368800761411586
20
0.51961879534257993
42
-55.537549719773907
10
-1.1713215850540162
20
0.43646963741656536
10
-1.7773624909703756
20
0.68749999999999989
10
-3.5
20
0.68749999999999989
10
-3.5
20
0.31250000000000006
0
ENDSEC
0
SECTION
2
OBJECTS
0
DICTIONARY
5
C
100
AcDbDictionary
3
ACAD_GROUP
350
D
3
ACAD_MLINESTYLE
350
17
0
DICTIONARY
5
D
100
AcDbDictionary
0
DICTIONARY
5
1A
330
C
100
AcDbDictionary
0
DICTIONARY
5
17
100
AcDbDictionary
0
ENDSEC
0
EOF
