0
SECTION
2
HEADER
9
$INSUNITS
70
1
9
$ACADVER
1
AC1014
9
$HANDSEED
5
FFFF
0
ENDSEC
0
SECTION
2
TABLES
0
TABLE
2
VPORT
5
8
100
AcDbSymbolTable
0
ENDTAB
0
TABLE
2
LTYPE
5
5
100
AcDbSymbolTable
0
LTYPE
5
14
100
AcDbSymbolTableRecord
100
AcDbLinetypeTableRecord
2
BYBLOCK
70
0
0
LTYPE
5
15
100
AcDbSymbolTableRecord
100
AcDbLinetypeTableRecord
2
BYLAYER
70
0
0
LTYPE
5
16
100
AcDbSymbolTableRecord
100
AcDbLinetypeTableRecord
2
DASHED
70
0
3
Dashed __ __ __ __ __ __ __ __ __ __ __ __ __ _
72
65
73
2
40
0.75
49
0.5
74
0
49
-0.25
74
0
0
ENDTAB
0
TABLE
2
LAYER
5
2
100
AcDbSymbolTable
70
2
0
LAYER
5
50
100
AcDbSymbolTableRecord
100
AcDbLayerTableRecord
2
0
70
0
62
7
6
CONTINUOUS
0
ENDTAB
0
TABLE
2
STYLE
5
3
100
AcDbSymbolTable
70
1
0
STYLE
5
11
100
AcDbSymbolTableRecord
100
AcDbTextStyleTableRecord
2
STANDARD
70
0
0
ENDTAB
0
TABLE
2
VIEW
5
6
100
AcDbSymbolTable
70
0
0
ENDTAB
0
TABLE
2
UCS
5
7
100
AcDbSymbolTable
70
0
0
ENDTAB
0
TABLE
2
APPID
5
9
100
AcDbSymbolTable
70
2
0
APPID
5
12
100
AcDbSymbolTableRecord
100
AcDbRegAppTableRecord
2
ACAD
70
0
0
ENDTAB
0
TABLE
2
DIMSTYLE
5
A
100
AcDbSymbolTable
70
1
0
ENDTAB
0
TABLE
2
BLOCK_RECORD
5
1
100
AcDbSymbolTable
70
1
0
BLOCK_RECORD
5
1F
100
AcDbSymbolTableRecord
100
AcDbBlockTableRecord
2
*MODEL_SPACE
0
BLOCK_RECORD
5
1B
100
AcDbSymbolTableRecord
100
AcDbBlockTableRecord
2
*PAPER_SPACE
0
ENDTAB
0
ENDSEC
0
SECTION
2
BLOCKS
0
BLOCK
5
20
100
AcDbEntity
100
AcDbBlockBegin
2
*MODEL_SPACE
0
ENDBLK
5
21
100
AcDbEntity
100
AcDbBlockEnd
0
BLOCK
5
1C
100
AcDbEntity
100
AcDbBlockBegin
2
*PAPER_SPACE
0
ENDBLK
5
1D
100
AcDbEntity
100
AcDbBlockEnd
0
ENDSEC
0
SECTION
2
ENTITIES
0
LWPOLYLINE
5
100
100
AcDbEntity
8
0
100
AcDbPolyline
90
4
70
1
43
0.0
10
3.3388025342193421e-16
20
1.4050000000000005
42
0.99999999999999989
10
4.3612463043598693e-16
20
1.8450000000000002
42
0.19891236737965801
10
-1.3046120112891801
20
1.3046120112891806
42
1.0000000105367119
10
-0.99348502756709955
20
0.99348502756709967
42
-0.19891236737965798
0
LWPOLYLINE
5
101
100
AcDbEntity
8
0
100
AcDbPolyline
90
4
70
1
43
0.0
10
-1.4050000000000005
20
1.3471114790620877e-17
42
0.99999999999999989
10
-1.8450000000000002
20
5.7180682689249074e-17
42
0.19891236737965801
10
-1.3046120112891801
20
-1.3046120112891804
42
1.0000000105367119
10
-0.99348502756709955
20
-0.99348502756709967
42
-0.19891236737965798
0
LWPOLYLINE
5
102
100
AcDbEntity
8
0
100
AcDbPolyline
90
4
70
1
43
0.0
10
-3.6082248300317597e-16
20
-1.4050000000000005
42
0.99999999999999989
10
-4.9660153665200169e-16
20
-1.8450000000000002
42
0.19891236737965801
10
1.3046120112891801
20
-1.3046120112891806
42
0.99999999999999989
10
0.993485027567099
20
-0.99348502756710022
42
-0.1989123673796579
0
LWPOLYLINE
5
103
100
AcDbEntity
8
0
100
AcDbPolyline
90
4
70
1
43
0.0
10
1.4050000000000005
20
-1.8553399007082403e-16
42
0.99999999999999989
10
1.8450000000000002
20
-2.7850391849669979e-16
42
0.19891236737965803
10
1.3046120112891801
20
1.3046120112891804
42
0.99999999999999989
10
0.99348502756709967
20
0.99348502756709955
42
-0.19891236737965798
0
CIRCLE
5
104
100
AcDbEntity
8
0
100
AcDbCircle
10
0
20
0
30
0
40
1.2499999999999996
210
0
220
-0
230
1
0
LWPOLYLINE
5
105
100
AcDbEntity
8
0
100
AcDbPolyline
90
32
70
1
43
0.0
10
0.79218131951119253
20
1.7818385889348971
42
0.012822620764144225
10
0.69979336626006372
20
1.8201069321714061
10
0.71893367357627469
20
1.866315721682192
42
0.18594799942087348
10
-0.71893367357627369
20
1.8663157216821924
10
-0.69979336626006339
20
1.8201069321714061
42
0.012822620764144768
10
-0.79218131951119186
20
1.7818385889348971
10
-0.81132162682740305
20
1.8280473784456825
42
0.1859479994208737
10
-1.828047378445683
20
0.81132162682740339
10
-1.7818385889348971
20
0.79218131951119286
42
0.012822620764144768
10
-1.8201069321714061
20
0.69979336626006416
10
-1.8663157216821924
20
0.71893367357627547
42
0.1859479994208737
10
-1.866315721682192
20
-0.71893367357627469
10
-1.8201069321714061
20
-0.69979336626006394
42
0.012822620764144768
10
-1.7818385889348967
20
-0.79218131951119219
10
-1.8280473784456825
20
-0.81132162682740327
42
0.1859479994208737
10
-0.81132162682740305
20
-1.828047378445683
10
-0.79218131951119219
20
-1.7818385889348967
42
0.012822620764144225
10
-0.69979336626006372
20
-1.8201069321714061
10
-0.71893367357627469
20
-1.8663157216821924
42
0.18594799942087376
10
0.71893367357627536
20
-1.866315721682192
10
0.69979336626006339
20
-1.8201069321714067
42
0.012822620764144768
10
0.79218131951119197
20
-1.7818385889348971
10
0.81132162682740327
20
-1.8280473784456825
42
0.18594799942087362
10
1.828047378445683
20
-0.81132162682740361
10
1.7818385889348971
20
-0.79218131951119286
42
0.012822620764144768
10
1.8201069321714061
20
-0.69979336626006416
10
1.8663157216821924
20
-0.71893367357627513
42
0.1859479994208737
10
1.866315721682192
20
0.71893367357627469
10
1.8201069321714061
20
0.69979336626006339
42
0.012822620764144225
10
1.7818385889348967
20
0.79218131951119219
10
1.8280473784456825
20
0.81132162682740327
42
0.18594799942087364
10
0.81132162682740327
20
1.8280473784456825
0
ENDSEC
0
SECTION
2
OBJECTS
0
DICTIONARY
5
C
100
AcDbDictionary
3
ACAD_GROUP
350
D
3
ACAD_MLINESTYLE
350
17
0
DICTIONARY
5
D
100
AcDbDictionary
0
DICTIONARY
5
1A
330
C
100
AcDbDictionary
0
DICTIONARY
5
17
100
AcDbDictionary
0
ENDSEC
0
EOF
